<?xml version="1.0" encoding="UTF-8" standalone="no"?>
<!DOCTYPE svg PUBLIC "-//W3C//DTD SVG 1.1//EN" "http://www.w3.org/Graphics/SVG/1.1/DTD/svg11.dtd">
<svg width="100%" height="100%" viewBox="0 0 1916 1097" version="1.1" xmlns="http://www.w3.org/2000/svg" xmlns:xlink="http://www.w3.org/1999/xlink" xml:space="preserve" xmlns:serif="http://www.serif.com/" style="fill-rule:evenodd;clip-rule:evenodd;stroke-linejoin:round;stroke-miterlimit:2;">
    <g id="Artboard1" transform="matrix(0.93655,0,0,0.797492,-200.196,-138.399)">
        <rect x="213.759" y="173.543" width="2045.18" height="1374.66" style="fill:none;"/>
        <g transform="matrix(4.44895,0,0,5.22471,-59.56,-151.86)">
            <g id="Layer-1" serif:id="Layer 1">
                <g>
                    <g transform="matrix(66.7673,0,0,66.7673,63.2198,218.052)">
                        <path d="M0.345,-0.71L0.06,-0.71L0.06,0L0.35,0C0.533,0 0.595,-0.109 0.595,-0.205C0.595,-0.297 0.541,-0.358 0.445,-0.372C0.542,-0.394 0.581,-0.456 0.581,-0.521C0.581,-0.605 0.532,-0.71 0.345,-0.71ZM0.253,-0.575L0.304,-0.575C0.367,-0.575 0.381,-0.536 0.381,-0.5C0.381,-0.465 0.37,-0.422 0.304,-0.422L0.253,-0.422L0.253,-0.575ZM0.253,-0.306L0.313,-0.306C0.369,-0.306 0.395,-0.27 0.395,-0.222C0.395,-0.179 0.373,-0.135 0.313,-0.135L0.253,-0.135L0.253,-0.306Z" style="fill-rule:nonzero;"/>
                    </g>
                    <g transform="matrix(66.7673,0,0,66.7673,165.596,271.466)">
                        <path d="M0.305,0.017C0.476,0.017 0.592,-0.087 0.592,-0.221C0.592,-0.341 0.518,-0.397 0.409,-0.429L0.309,-0.458C0.255,-0.474 0.235,-0.494 0.235,-0.525C0.235,-0.553 0.257,-0.574 0.307,-0.574C0.351,-0.574 0.399,-0.552 0.45,-0.486L0.587,-0.605C0.531,-0.675 0.442,-0.727 0.317,-0.727C0.16,-0.727 0.045,-0.644 0.045,-0.498C0.045,-0.394 0.113,-0.328 0.229,-0.295L0.323,-0.268C0.378,-0.252 0.397,-0.237 0.397,-0.198C0.397,-0.158 0.355,-0.14 0.32,-0.14C0.249,-0.14 0.201,-0.169 0.169,-0.239L0.012,-0.154C0.076,-0.02 0.199,0.017 0.305,0.017Z" style="fill-rule:nonzero;"/>
                    </g>
                    <g transform="matrix(66.7673,0,0,66.7673,268.899,320.528)">
                        <path d="M0.417,0L0.605,0L0.424,-0.71L0.196,-0.71L0.015,0L0.203,0L0.229,-0.125L0.391,-0.125L0.417,0ZM0.26,-0.267L0.26,-0.269C0.285,-0.39 0.298,-0.467 0.307,-0.561L0.313,-0.561C0.322,-0.467 0.335,-0.39 0.36,-0.269L0.36,-0.267L0.26,-0.267Z" style="fill-rule:nonzero;"/>
                    </g>
                    <g transform="matrix(66.7673,0,0,66.7673,372.727,271.466)">
                        <path d="M0.417,0L0.605,0L0.424,-0.71L0.196,-0.71L0.015,0L0.203,0L0.229,-0.125L0.391,-0.125L0.417,0ZM0.26,-0.267L0.26,-0.269C0.285,-0.39 0.298,-0.467 0.307,-0.561L0.313,-0.561C0.322,-0.467 0.335,-0.39 0.36,-0.269L0.36,-0.267L0.26,-0.267Z" style="fill-rule:nonzero;"/>
                    </g>
                    <g transform="matrix(66.7673,0,0,66.7673,477.351,218.052)">
                        <path d="M0.375,-0.387L0.246,-0.71L0.051,-0.71L0.051,0L0.216,0L0.216,-0.313C0.216,-0.351 0.212,-0.408 0.203,-0.442L0.212,-0.442C0.22,-0.41 0.229,-0.362 0.243,-0.329L0.382,0L0.569,0L0.569,-0.71L0.404,-0.71L0.404,-0.414C0.404,-0.376 0.408,-0.307 0.417,-0.269L0.408,-0.269C0.402,-0.303 0.387,-0.353 0.375,-0.387Z" style="fill-rule:nonzero;"/>
                    </g>
                    <g transform="matrix(66.7673,0,0,66.7673,268.904,218.052)">
                        <path d="M0.265,-0.254L0.35,-0.254C0.54,-0.254 0.605,-0.378 0.605,-0.487C0.605,-0.587 0.54,-0.71 0.35,-0.71L0.072,-0.71L0.072,0L0.265,0L0.265,-0.254ZM0.265,-0.384L0.265,-0.575L0.302,-0.575C0.377,-0.575 0.404,-0.535 0.404,-0.479C0.404,-0.427 0.379,-0.384 0.302,-0.384L0.265,-0.384Z" style="fill-rule:nonzero;"/>
                    </g>
                    <g transform="matrix(66.7673,0,0,66.7673,373.261,169.112)">
                        <path d="M0.039,-0.71L0.039,-0.55L0.213,-0.55L0.213,0L0.406,0L0.406,-0.55L0.58,-0.55L0.58,-0.71L0.039,-0.71Z" style="fill-rule:nonzero;"/>
                    </g>
                    <g transform="matrix(66.7673,0,0,66.7673,164.079,169.112)">
                        <path d="M0.54,-0.71L0.083,-0.71L0.083,0L0.547,0L0.547,-0.15L0.276,-0.15L0.276,-0.289L0.523,-0.289L0.523,-0.436L0.276,-0.436L0.276,-0.56L0.54,-0.56L0.54,-0.71Z" style="fill-rule:nonzero;"/>
                    </g>
                    <g transform="matrix(66.7673,0,0,66.7673,268.899,114.547)">
                        <path d="M0.402,0L0.61,0L0.484,-0.316C0.55,-0.351 0.587,-0.41 0.587,-0.486C0.587,-0.628 0.493,-0.71 0.33,-0.71L0.054,-0.71L0.054,0L0.247,0L0.247,-0.278L0.303,-0.278L0.402,0ZM0.247,-0.575L0.301,-0.575C0.356,-0.575 0.386,-0.544 0.386,-0.486C0.386,-0.429 0.357,-0.399 0.301,-0.399L0.247,-0.399L0.247,-0.575Z" style="fill-rule:nonzero;"/>
                    </g>
                </g>
            </g>
        </g>
    </g>
</svg>
